<svg xmlns="http://www.w3.org/2000/svg" width="1000" height="440" viewBox="0 0 1000 440"><rect x="1" y="1" width="998" height="438" rx="22" fill="#fcfcfb" stroke="#e1e0d9" stroke-width="2"/><rect x="40" y="11" width="83.88" height="30" rx="15" fill="#e6e3f3"/><circle cx="55" cy="26" r="5" fill="#4a3aa7"/><text x="67" y="31" font-family="'Avenir Next', 'Avenir', 'Helvetica Neue', Arial, sans-serif" font-size="13" font-weight="600" fill="#52514e" text-anchor="start">MODEL</text><text x="40" y="96" font-family="'Avenir Next', 'Avenir', 'Helvetica Neue', Arial, sans-serif" font-size="27" font-weight="600" fill="#0b0b0b" text-anchor="start">Near-attack conformation: when the reactants take aim</text><text x="40" y="126" font-family="'Avenir Next', 'Avenir', 'Helvetica Neue', Arial, sans-serif" font-size="17" font-weight="400" fill="#52514e" text-anchor="start">Chemistry can only start from these poses; MD measures the fraction of time spent in them</text><rect x="40" y="160" width="440" height="250" rx="16" fill="#ffffff" stroke="#e1e0d9" stroke-width="2"/><text x="100" y="197" font-family="'Avenir Next', 'Avenir', 'Helvetica Neue', Arial, sans-serif" font-size="18" font-weight="600" fill="#0b0b0b" text-anchor="start">Near attack (NAC)</text><circle cx="75" cy="191" r="15" fill="#0ca30c"/><path d="M 68.25 191.3 L 73.5 196.7 L 82.5 185.75" fill="none" stroke="#ffffff" stroke-width="3" stroke-linejoin="round" stroke-linecap="round"/><line x1="100" y1="300" x2="190" y2="300" stroke="#52514e" stroke-width="3.2" stroke-linecap="round"/><circle cx="110" cy="300" r="13" fill="#f8d999" stroke="#eda100" stroke-width="2"/><circle cx="190" cy="300" r="22" fill="#f5cb73" stroke="#eda100" stroke-width="2"/><text x="190" y="305.4" font-family="'STIX Two Text', 'STIXGeneral', 'Times New Roman', serif" font-size="16.8" font-weight="600" fill="#0b0b0b" text-anchor="middle">Pγ</text><path d="M 379.52 321 L 357 334 L 334.48 321 L 334.48 295 L 357 282 L 379.52 295 Z" fill="#f9d2c2" stroke="#eb6834" stroke-width="2.5" stroke-linejoin="round" stroke-linecap="round"/><line x1="309" y1="303" x2="333" y2="304" stroke="#52514e" stroke-width="3.2" stroke-linecap="round"/><circle cx="295" cy="300" r="15" fill="#f9d5c6" stroke="#eb6834" stroke-width="2"/><text x="295" y="304.32" font-family="'Avenir Next', 'Avenir', 'Helvetica Neue', Arial, sans-serif" font-size="12" font-weight="600" fill="#0b0b0b" text-anchor="middle">O6</text><line x1="214" y1="300" x2="278" y2="300" stroke="#eb6834" stroke-width="2.4" stroke-dasharray="3 6" stroke-linecap="round"/><text x="242.5" y="278" font-family="'Avenir Next', 'Avenir', 'Helvetica Neue', Arial, sans-serif" font-size="16" font-weight="600" fill="#0b0b0b" text-anchor="middle">d &lt; 3.5 Å</text><text x="70" y="372" font-family="'Avenir Next', 'Avenir', 'Helvetica Neue', Arial, sans-serif" font-size="14.5" font-weight="400" fill="#52514e" text-anchor="start">O6 points at the phosphorus and is close</text><text x="70" y="392" font-family="'Avenir Next', 'Avenir', 'Helvetica Neue', Arial, sans-serif" font-size="14.5" font-weight="400" fill="#52514e" text-anchor="start">→ the reaction is possible</text><rect x="520" y="160" width="440" height="250" rx="16" fill="#ffffff" stroke="#e1e0d9" stroke-width="2"/><text x="580" y="197" font-family="'Avenir Next', 'Avenir', 'Helvetica Neue', Arial, sans-serif" font-size="18" font-weight="600" fill="#0b0b0b" text-anchor="start">Non-reactive</text><circle cx="555" cy="191" r="15" fill="#d03b3b"/><line x1="549.3" y1="185.3" x2="560.7" y2="196.7" stroke="#ffffff" stroke-width="3" stroke-linecap="round"/><line x1="549.3" y1="196.7" x2="560.7" y2="185.3" stroke="#ffffff" stroke-width="3" stroke-linecap="round"/><line x1="580" y1="300" x2="670" y2="300" stroke="#52514e" stroke-width="3.2" stroke-linecap="round"/><circle cx="590" cy="300" r="13" fill="#f8d999" stroke="#eda100" stroke-width="2"/><circle cx="670" cy="300" r="22" fill="#f5cb73" stroke="#eda100" stroke-width="2"/><text x="670" y="305.4" font-family="'STIX Two Text', 'STIXGeneral', 'Times New Roman', serif" font-size="16.8" font-weight="600" fill="#0b0b0b" text-anchor="middle">Pγ</text><path d="M 949.52 356 L 927 369 L 904.48 356 L 904.48 330 L 927 317 L 949.52 330 Z" fill="#f9d2c2" stroke="#eb6834" stroke-width="2.5" stroke-linejoin="round" stroke-linecap="round"/><line x1="879" y1="338" x2="903" y2="339" stroke="#52514e" stroke-width="3.2" stroke-linecap="round"/><circle cx="865" cy="335" r="15" fill="#f9d5c6" stroke="#eb6834" stroke-width="2"/><text x="865" y="339.32" font-family="'Avenir Next', 'Avenir', 'Helvetica Neue', Arial, sans-serif" font-size="12" font-weight="600" fill="#0b0b0b" text-anchor="middle">O6</text><line x1="694" y1="306" x2="848" y2="331" stroke="#898781" stroke-width="2.4" stroke-dasharray="3 6" stroke-linecap="round"/><text x="767.5" y="292" font-family="'Avenir Next', 'Avenir', 'Helvetica Neue', Arial, sans-serif" font-size="16" font-weight="600" fill="#0b0b0b" text-anchor="middle">d &gt; 3.5 Å</text><text x="550" y="372" font-family="'Avenir Next', 'Avenir', 'Helvetica Neue', Arial, sans-serif" font-size="14.5" font-weight="400" fill="#52514e" text-anchor="start">too far or badly oriented</text><text x="550" y="392" font-family="'Avenir Next', 'Avenir', 'Helvetica Neue', Arial, sans-serif" font-size="14.5" font-weight="400" fill="#52514e" text-anchor="start">→ we must wait for it to come closer</text></svg>
