<svg xmlns="http://www.w3.org/2000/svg" width="1000" height="800" viewBox="0 0 1000 800"><defs><marker id="fl898781" viewBox="0 0 10 10" refX="8" refY="5" markerWidth="5.5" markerHeight="5.5" orient="auto-start-reverse" markerUnits="strokeWidth"><path d="M 0 0 L 10 5 L 0 10 z" fill="#898781"/></marker></defs><rect x="1" y="1" width="998" height="798" rx="22" fill="#fcfcfb" stroke="#e1e0d9" stroke-width="2"/><rect x="40" y="11" width="108.96" height="30" rx="15" fill="#fceae3"/><circle cx="55" cy="26" r="5" fill="#eb6834"/><text x="67" y="31" font-family="'Avenir Next', 'Avenir', 'Helvetica Neue', Arial, sans-serif" font-size="13" font-weight="600" fill="#52514e" text-anchor="start">ANALOGÍA</text><text x="40" y="96" font-family="'Avenir Next', 'Avenir', 'Helvetica Neue', Arial, sans-serif" font-size="27" font-weight="600" fill="#0b0b0b" text-anchor="start">La enzima es una caja de supermercado</text><text x="40" y="126" font-family="'Avenir Next', 'Avenir', 'Helvetica Neue', Arial, sans-serif" font-size="17" font-weight="400" fill="#52514e" text-anchor="start">Con pocos clientes la caja espera; con una cola larga trabaja a tope y ya no puede ir más rápido</text><rect x="40" y="170" width="290" height="280" rx="16" fill="#ffffff" stroke="#e1e0d9" stroke-width="2"/><circle cx="70" cy="202" r="15" fill="#0b0b0b"/><text x="70" y="208" font-family="'Avenir Next', 'Avenir', 'Helvetica Neue', Arial, sans-serif" font-size="16.5" font-weight="600" fill="#ffffff" text-anchor="middle">1</text><text x="94" y="208" font-family="'Avenir Next', 'Avenir', 'Helvetica Neue', Arial, sans-serif" font-size="17" font-weight="600" fill="#0b0b0b" text-anchor="start">Pocos clientes</text><text x="312" y="208" font-family="'STIX Two Text', 'STIXGeneral', 'Times New Roman', serif" font-size="17" font-weight="400" fill="#52514e" text-anchor="end">[S] ≪ K<tspan dy="4.76" font-size="11.56">M</tspan><tspan dy="-4.76">​</tspan></text><rect x="230" y="255" width="70" height="46" rx="9" fill="#2a78d6"/><rect x="240" y="265" width="50" height="8" rx="4" fill="#ffffff" opacity="0.45"/><text x="265" y="321" font-family="'Avenir Next', 'Avenir', 'Helvetica Neue', Arial, sans-serif" font-size="13" font-weight="400" fill="#898781" text-anchor="middle">caja</text><line x1="58" y1="301" x2="312" y2="301" stroke="#e1e0d9" stroke-width="2" stroke-linecap="round"/><circle cx="80" cy="289" r="11" fill="#eb6834" opacity="0.85"/><path d="M 98 289 L 128 289" fill="none" stroke="#898781" stroke-width="2" stroke-linejoin="round" stroke-linecap="round" marker-end="url(#fl898781)"/><text x="265" y="243" font-family="'Avenir Next', 'Avenir', 'Helvetica Neue', Arial, sans-serif" font-size="13" font-weight="400" fill="#898781" text-anchor="middle">libre</text><text x="62" y="360" font-family="'Avenir Next', 'Avenir', 'Helvetica Neue', Arial, sans-serif" font-size="13" font-weight="400" fill="#898781" text-anchor="start">tiempo ocupada</text><text x="308" y="360" font-family="'Avenir Next', 'Avenir', 'Helvetica Neue', Arial, sans-serif" font-size="13" font-weight="600" fill="#52514e" text-anchor="end">12 %</text><rect x="62" y="370" width="246" height="10" rx="5" fill="#eae9e8"/><rect x="62" y="370" width="29.52" height="10" rx="5" fill="#1baf7a"/><text x="62" y="410" font-family="'Avenir Next', 'Avenir', 'Helvetica Neue', Arial, sans-serif" font-size="14.5" font-weight="400" fill="#52514e" text-anchor="start">la caja espera casi siempre:</text><text x="62" y="428.85" font-family="'Avenir Next', 'Avenir', 'Helvetica Neue', Arial, sans-serif" font-size="14.5" font-weight="400" fill="#52514e" text-anchor="start">cada cliente nuevo cuenta</text><rect x="355" y="170" width="290" height="280" rx="16" fill="#ffffff" stroke="#e1e0d9" stroke-width="2"/><circle cx="385" cy="202" r="15" fill="#0b0b0b"/><text x="385" y="208" font-family="'Avenir Next', 'Avenir', 'Helvetica Neue', Arial, sans-serif" font-size="16.5" font-weight="600" fill="#ffffff" text-anchor="middle">2</text><text x="409" y="208" font-family="'Avenir Next', 'Avenir', 'Helvetica Neue', Arial, sans-serif" font-size="17" font-weight="600" fill="#0b0b0b" text-anchor="start">Algunos clientes</text><text x="627" y="208" font-family="'STIX Two Text', 'STIXGeneral', 'Times New Roman', serif" font-size="17" font-weight="400" fill="#52514e" text-anchor="end">[S] = K<tspan dy="4.76" font-size="11.56">M</tspan><tspan dy="-4.76">​</tspan></text><rect x="545" y="255" width="70" height="46" rx="9" fill="#2a78d6"/><rect x="555" y="265" width="50" height="8" rx="4" fill="#ffffff" opacity="0.45"/><text x="580" y="321" font-family="'Avenir Next', 'Avenir', 'Helvetica Neue', Arial, sans-serif" font-size="13" font-weight="400" fill="#898781" text-anchor="middle">caja</text><line x1="373" y1="301" x2="627" y2="301" stroke="#e1e0d9" stroke-width="2" stroke-linecap="round"/><circle cx="525" cy="285" r="17" fill="#a4dfca"/><circle cx="525" cy="285" r="11" fill="#eb6834"/><circle cx="425" cy="289" r="11" fill="#eb6834" opacity="0.85"/><path d="M 443 289 L 473 289" fill="none" stroke="#898781" stroke-width="2" stroke-linejoin="round" stroke-linecap="round" marker-end="url(#fl898781)"/><text x="377" y="360" font-family="'Avenir Next', 'Avenir', 'Helvetica Neue', Arial, sans-serif" font-size="13" font-weight="400" fill="#898781" text-anchor="start">tiempo ocupada</text><text x="623" y="360" font-family="'Avenir Next', 'Avenir', 'Helvetica Neue', Arial, sans-serif" font-size="13" font-weight="600" fill="#52514e" text-anchor="end">50 %</text><rect x="377" y="370" width="246" height="10" rx="5" fill="#eae9e8"/><rect x="377" y="370" width="123" height="10" rx="5" fill="#1baf7a"/><text x="377" y="410" font-family="'Avenir Next', 'Avenir', 'Helvetica Neue', Arial, sans-serif" font-size="14.5" font-weight="400" fill="#52514e" text-anchor="start">ocupada la mitad del tiempo:</text><text x="377" y="428.85" font-family="'Avenir Next', 'Avenir', 'Helvetica Neue', Arial, sans-serif" font-size="14.5" font-weight="400" fill="#52514e" text-anchor="start">v<tspan dy="4.06" font-size="9.86">0</tspan><tspan dy="-4.06">​</tspan> = V<tspan dy="4.06" font-size="9.86">max</tspan><tspan dy="-4.06">​</tspan> / 2</text><rect x="670" y="170" width="290" height="280" rx="16" fill="#ffffff" stroke="#e1e0d9" stroke-width="2"/><circle cx="700" cy="202" r="15" fill="#0b0b0b"/><text x="700" y="208" font-family="'Avenir Next', 'Avenir', 'Helvetica Neue', Arial, sans-serif" font-size="16.5" font-weight="600" fill="#ffffff" text-anchor="middle">3</text><text x="724" y="208" font-family="'Avenir Next', 'Avenir', 'Helvetica Neue', Arial, sans-serif" font-size="17" font-weight="600" fill="#0b0b0b" text-anchor="start">Cola larga</text><text x="942" y="208" font-family="'STIX Two Text', 'STIXGeneral', 'Times New Roman', serif" font-size="17" font-weight="400" fill="#52514e" text-anchor="end">[S] ≫ K<tspan dy="4.76" font-size="11.56">M</tspan><tspan dy="-4.76">​</tspan></text><rect x="860" y="255" width="70" height="46" rx="9" fill="#2a78d6"/><rect x="870" y="265" width="50" height="8" rx="4" fill="#ffffff" opacity="0.45"/><text x="895" y="321" font-family="'Avenir Next', 'Avenir', 'Helvetica Neue', Arial, sans-serif" font-size="13" font-weight="400" fill="#898781" text-anchor="middle">caja</text><line x1="688" y1="301" x2="942" y2="301" stroke="#e1e0d9" stroke-width="2" stroke-linecap="round"/><circle cx="840" cy="285" r="17" fill="#a4dfca"/><circle cx="840" cy="285" r="11" fill="#eb6834"/><circle cx="808" cy="289" r="11" fill="#eb6834" opacity="1"/><circle cx="781" cy="289" r="11" fill="#eb6834" opacity="1"/><circle cx="754" cy="289" r="11" fill="#eb6834" opacity="1"/><circle cx="727" cy="289" r="11" fill="#eb6834" opacity="1"/><circle cx="700" cy="289" r="11" fill="#eb6834" opacity="1"/><text x="692" y="360" font-family="'Avenir Next', 'Avenir', 'Helvetica Neue', Arial, sans-serif" font-size="13" font-weight="400" fill="#898781" text-anchor="start">tiempo ocupada</text><text x="938" y="360" font-family="'Avenir Next', 'Avenir', 'Helvetica Neue', Arial, sans-serif" font-size="13" font-weight="600" fill="#52514e" text-anchor="end">88 %</text><rect x="692" y="370" width="246" height="10" rx="5" fill="#eae9e8"/><rect x="692" y="370" width="215.25" height="10" rx="5" fill="#1baf7a"/><text x="692" y="410" font-family="'Avenir Next', 'Avenir', 'Helvetica Neue', Arial, sans-serif" font-size="14.5" font-weight="400" fill="#52514e" text-anchor="start">siempre ocupada: v<tspan dy="4.06" font-size="9.86">0</tspan><tspan dy="-4.06">​</tspan> → V<tspan dy="4.06" font-size="9.86">max</tspan><tspan dy="-4.06">​</tspan>;</text><text x="692" y="428.85" font-family="'Avenir Next', 'Avenir', 'Helvetica Neue', Arial, sans-serif" font-size="14.5" font-weight="400" fill="#52514e" text-anchor="start">da igual que lleguen más</text><line x1="150" y1="740" x2="920" y2="740" stroke="#c3c2b7" stroke-width="2" stroke-linecap="round"/><line x1="150" y1="740" x2="150" y2="490" stroke="#c3c2b7" stroke-width="2" stroke-linecap="round"/><text x="920" y="764" font-family="'Avenir Next', 'Avenir', 'Helvetica Neue', Arial, sans-serif" font-size="14" font-weight="400" fill="#52514e" text-anchor="end">[S]  (clientes que llegan)</text><text x="138" y="486" font-family="'Avenir Next', 'Avenir', 'Helvetica Neue', Arial, sans-serif" font-size="15" font-weight="600" fill="#0b0b0b" text-anchor="end">v₀</text><line x1="150" y1="520" x2="900" y2="520" stroke="#c3c2b7" stroke-width="1.5" stroke-dasharray="5 6" stroke-linecap="round"/><text x="138" y="526" font-family="'STIX Two Text', 'STIXGeneral', 'Times New Roman', serif" font-size="17" font-weight="400" fill="#0b0b0b" text-anchor="end">V<tspan dy="4.76" font-size="11.56">max</tspan><tspan dy="-4.76">​</tspan></text><line x1="150" y1="630" x2="225" y2="630" stroke="#c3c2b7" stroke-width="1.5" stroke-dasharray="5 6" stroke-linecap="round"/><line x1="225" y1="630" x2="225" y2="740" stroke="#c3c2b7" stroke-width="1.5" stroke-dasharray="5 6" stroke-linecap="round"/><text x="138" y="636" font-family="'STIX Two Text', 'STIXGeneral', 'Times New Roman', serif" font-size="17" font-weight="400" fill="#0b0b0b" text-anchor="end">V<tspan dy="4.76" font-size="11.56">max</tspan><tspan dy="-4.76">​</tspan>/2</text><text x="225" y="764" font-family="'STIX Two Text', 'STIXGeneral', 'Times New Roman', serif" font-size="17" font-weight="400" fill="#0b0b0b" text-anchor="middle">K<tspan dy="4.76" font-size="11.56">M</tspan><tspan dy="-4.76">​</tspan></text><path d="M 150 740 C 151.56 735.93 156.25 722.89 159.38 715.56 C 162.5 708.22 165.62 701.93 168.75 696 C 171.88 690.07 175 684.89 178.12 680 C 181.25 675.11 184.38 670.77 187.5 666.67 C 190.62 662.56 193.75 658.88 196.88 655.38 C 200 651.89 203.12 648.72 206.25 645.71 C 209.38 642.71 212.5 639.95 215.62 637.33 C 218.75 634.71 221.88 632.3 225 630 C 228.12 627.7 231.25 625.57 234.38 623.53 C 237.5 621.49 240.62 619.59 243.75 617.78 C 246.88 615.96 250 614.26 253.12 612.63 C 256.25 611 259.38 609.47 262.5 608 C 265.62 606.53 268.75 605.14 271.88 603.81 C 275 602.48 278.12 601.21 281.25 600 C 284.38 598.79 287.5 597.63 290.62 596.52 C 293.75 595.41 296.88 594.35 300 593.33 C 303.12 592.31 306.25 591.34 309.38 590.4 C 312.5 589.46 315.62 588.56 318.75 587.69 C 321.88 586.82 325 585.99 328.12 585.19 C 331.25 584.38 334.38 583.61 337.5 582.86 C 340.62 582.11 343.75 581.39 346.88 580.69 C 350 579.99 353.12 579.32 356.25 578.67 C 359.38 578.01 362.5 577.39 365.62 576.77 C 368.75 576.16 371.88 575.57 375 575 C 378.12 574.43 381.25 573.87 384.38 573.33 C 387.5 572.79 390.62 572.27 393.75 571.76 C 396.88 571.26 400 570.77 403.12 570.29 C 406.25 569.81 409.38 569.34 412.5 568.89 C 415.62 568.44 418.75 568 421.88 567.57 C 425 567.14 428.12 566.72 431.25 566.32 C 434.38 565.91 437.5 565.51 440.62 565.13 C 443.75 564.74 446.88 564.37 450 564 C 453.12 563.63 456.25 563.28 459.38 562.93 C 462.5 562.58 465.62 562.24 468.75 561.9 C 471.88 561.57 475 561.25 478.12 560.93 C 481.25 560.61 484.38 560.3 487.5 560 C 490.62 559.7 493.75 559.4 496.88 559.11 C 500 558.82 503.12 558.54 506.25 558.26 C 509.38 557.98 512.5 557.71 515.62 557.45 C 518.75 557.18 521.88 556.92 525 556.67 C 528.12 556.41 531.25 556.16 534.38 555.92 C 537.5 555.67 540.62 555.43 543.75 555.2 C 546.88 554.97 550 554.74 553.12 554.51 C 556.25 554.28 559.38 554.06 562.5 553.85 C 565.62 553.63 568.75 553.42 571.88 553.21 C 575 553 578.12 552.79 581.25 552.59 C 584.38 552.39 587.5 552.19 590.62 552 C 593.75 551.81 596.88 551.62 600 551.43 C 603.12 551.24 606.25 551.06 609.38 550.88 C 612.5 550.7 615.62 550.52 618.75 550.34 C 621.88 550.17 625 550 628.12 549.83 C 631.25 549.66 634.38 549.5 637.5 549.33 C 640.62 549.17 643.75 549.01 646.88 548.85 C 650 548.69 653.12 548.54 656.25 548.39 C 659.38 548.23 662.5 548.08 665.62 547.94 C 668.75 547.79 671.88 547.64 675 547.5 C 678.12 547.36 681.25 547.22 684.38 547.08 C 687.5 546.94 690.62 546.8 693.75 546.67 C 696.88 546.53 700 546.4 703.12 546.27 C 706.25 546.14 709.38 546.01 712.5 545.88 C 715.62 545.76 718.75 545.63 721.88 545.51 C 725 545.38 728.12 545.26 731.25 545.14 C 734.38 545.02 737.5 544.91 740.62 544.79 C 743.75 544.67 746.88 544.56 750 544.44 C 753.12 544.33 756.25 544.22 759.38 544.11 C 762.5 544 765.62 543.89 768.75 543.78 C 771.88 543.68 775 543.57 778.12 543.47 C 781.25 543.36 784.38 543.26 787.5 543.16 C 790.62 543.06 793.75 542.96 796.88 542.86 C 800 542.76 803.12 542.66 806.25 542.56 C 809.38 542.47 812.5 542.37 815.62 542.28 C 818.75 542.18 821.88 542.09 825 542 C 828.12 541.91 831.25 541.82 834.38 541.73 C 837.5 541.64 840.62 541.55 843.75 541.46 C 846.88 541.38 850 541.29 853.12 541.2 C 856.25 541.12 859.38 541.04 862.5 540.95 C 865.62 540.87 868.75 540.79 871.88 540.71 C 875 540.62 878.12 540.54 881.25 540.47 C 884.38 540.39 887.5 540.31 890.62 540.23 C 893.75 540.15 898.44 540.04 900 540" fill="none" stroke="#2a78d6" stroke-width="3" stroke-linejoin="round" stroke-linecap="round"/><circle cx="160.5" cy="712.98" r="8" fill="#2a78d6" stroke="#ffffff" stroke-width="2.5"/><circle cx="134.5" cy="698.98" r="12" fill="#0b0b0b"/><text x="134.5" y="704.98" font-family="'Avenir Next', 'Avenir', 'Helvetica Neue', Arial, sans-serif" font-size="13.2" font-weight="600" fill="#ffffff" text-anchor="middle">1</text><circle cx="225" cy="630" r="8" fill="#2a78d6" stroke="#ffffff" stroke-width="2.5"/><circle cx="249" cy="652" r="12" fill="#0b0b0b"/><text x="249" y="658" font-family="'Avenir Next', 'Avenir', 'Helvetica Neue', Arial, sans-serif" font-size="13.2" font-weight="600" fill="#ffffff" text-anchor="middle">2</text><circle cx="675" cy="547.5" r="8" fill="#2a78d6" stroke="#ffffff" stroke-width="2.5"/><circle cx="675" cy="577.5" r="12" fill="#0b0b0b"/><text x="675" y="583.5" font-family="'Avenir Next', 'Avenir', 'Helvetica Neue', Arial, sans-serif" font-size="13.2" font-weight="600" fill="#ffffff" text-anchor="middle">3</text><text x="420" y="504" font-family="'Avenir Next', 'Avenir', 'Helvetica Neue', Arial, sans-serif" font-size="14" font-weight="400" fill="#52514e" text-anchor="middle">meseta: saturación</text><text x="243.75" y="718" font-family="'Avenir Next', 'Avenir', 'Helvetica Neue', Arial, sans-serif" font-size="14" font-weight="400" fill="#52514e" text-anchor="start">tramo casi recto (al principio)</text></svg>
