<svg xmlns="http://www.w3.org/2000/svg" width="1000" height="615" viewBox="0 0 1000 615"><defs><marker id="fl52514e" viewBox="0 0 10 10" refX="8" refY="5" markerWidth="5.5" markerHeight="5.5" orient="auto-start-reverse" markerUnits="strokeWidth"><path d="M 0 0 L 10 5 L 0 10 z" fill="#52514e"/></marker><marker id="fl898781" viewBox="0 0 10 10" refX="8" refY="5" markerWidth="5.5" markerHeight="5.5" orient="auto-start-reverse" markerUnits="strokeWidth"><path d="M 0 0 L 10 5 L 0 10 z" fill="#898781"/></marker></defs><rect x="1" y="1" width="998" height="613" rx="22" fill="#fcfcfb" stroke="#e1e0d9" stroke-width="2"/><rect x="40" y="11" width="108.96" height="30" rx="15" fill="#fceae3"/><circle cx="55" cy="26" r="5" fill="#eb6834"/><text x="67" y="31" font-family="'Avenir Next', 'Avenir', 'Helvetica Neue', Arial, sans-serif" font-size="13" font-weight="600" fill="#52514e" text-anchor="start">ANALOGÍA</text><text x="40" y="96" font-family="'Avenir Next', 'Avenir', 'Helvetica Neue', Arial, sans-serif" font-size="27" font-weight="600" fill="#0b0b0b" text-anchor="start">Cooperatividad cinética: una enzima con memoria</text><text x="40" y="126" font-family="'Avenir Next', 'Avenir', 'Helvetica Neue', Arial, sans-serif" font-size="17" font-weight="400" fill="#52514e" text-anchor="start">Un solo sitio activo, dos formas que se interconvierten tan despacio como la propia catálisis</text><path d="M 155 280 A 55 55 0 0 0 265 280 Z" fill="#8ab5e8" stroke-linejoin="round" stroke-linecap="round"/><g transform="rotate(-30 155 277)"><path d="M 155 277 A 55 44 0 0 1 265 277 Z" fill="#aeccef"/></g><circle cx="155" cy="279" r="6" fill="#52514e"/><text x="210" y="362" font-family="'Avenir Next', 'Avenir', 'Helvetica Neue', Arial, sans-serif" font-size="17" font-weight="600" fill="#0b0b0b" text-anchor="middle">forma abierta</text><text x="210" y="384" font-family="'Avenir Next', 'Avenir', 'Helvetica Neue', Arial, sans-serif" font-size="14" font-weight="400" fill="#52514e" text-anchor="middle">poco activa (lenta)</text><path d="M 645 280 A 55 55 0 0 0 755 280 Z" fill="#2a78d6" stroke-linejoin="round" stroke-linecap="round"/><g transform="rotate(0 645 277)"><path d="M 645 277 A 55 44 0 0 1 755 277 Z" fill="#5f9ae0"/></g><circle cx="645" cy="279" r="6" fill="#52514e"/><circle cx="705" cy="274" r="12" fill="#eb6834"/><text x="700" y="362" font-family="'Avenir Next', 'Avenir', 'Helvetica Neue', Arial, sans-serif" font-size="17" font-weight="600" fill="#0b0b0b" text-anchor="middle">forma cerrada</text><text x="700" y="384" font-family="'Avenir Next', 'Avenir', 'Helvetica Neue', Arial, sans-serif" font-size="14" font-weight="400" fill="#52514e" text-anchor="middle">activa (rápida)</text><path d="M 300 240 Q 455 202.8 610 240" fill="none" stroke="#52514e" stroke-width="2.5" stroke-linejoin="round" stroke-linecap="round" marker-end="url(#fl52514e)"/><path d="M 610 300 Q 455 337.2 300 300" fill="none" stroke="#898781" stroke-width="2.5" stroke-linejoin="round" stroke-linecap="round" marker-end="url(#fl898781)"/><text x="455" y="205" font-family="'Avenir Next', 'Avenir', 'Helvetica Neue', Arial, sans-serif" font-size="14.5" font-weight="400" fill="#52514e" text-anchor="middle">se cierra al unir glucosa</text><text x="455" y="345" font-family="'Avenir Next', 'Avenir', 'Helvetica Neue', Arial, sans-serif" font-size="14.5" font-weight="400" fill="#52514e" text-anchor="middle">se relaja despacio si no llega otra glucosa</text><text x="455" y="283" font-family="'STIX Two Text', 'STIXGeneral', 'Times New Roman', serif" font-size="16" font-weight="400" fill="#52514e" text-anchor="middle">k<tspan dy="4.48" font-size="10.88">ex</tspan><tspan dy="-4.48">​</tspan> ≈ 5–100 s<tspan dy="-6.08" font-size="10.88">−1</tspan><tspan dy="6.08">​</tspan>  vs  k<tspan dy="4.48" font-size="10.88">cat</tspan><tspan dy="-4.48">​</tspan> ≈ 60 s<tspan dy="-6.08" font-size="10.88">−1</tspan><tspan dy="6.08">​</tspan></text><text x="40" y="446" font-family="'Avenir Next', 'Avenir', 'Helvetica Neue', Arial, sans-serif" font-size="15" font-weight="600" fill="#0b0b0b" text-anchor="start">poca glucosa</text><rect x="175" y="432" width="725" height="16" rx="8" fill="#c3d9f4"/><rect x="195.71" y="432" width="95" height="16" rx="8" fill="#2a78d6"/><circle cx="195.71" cy="418" r="7" fill="#eb6834"/><rect x="485.71" y="432" width="95" height="16" rx="8" fill="#2a78d6"/><circle cx="485.71" cy="418" r="7" fill="#eb6834"/><rect x="786.07" y="432" width="95" height="16" rx="8" fill="#2a78d6"/><circle cx="786.07" cy="418" r="7" fill="#eb6834"/><text x="175" y="472" font-family="'Avenir Next', 'Avenir', 'Helvetica Neue', Arial, sans-serif" font-size="13.5" font-weight="400" fill="#52514e" text-anchor="start">entre una glucosa y la siguiente se relaja: casi siempre lenta</text><text x="40" y="526" font-family="'Avenir Next', 'Avenir', 'Helvetica Neue', Arial, sans-serif" font-size="15" font-weight="600" fill="#0b0b0b" text-anchor="start">mucha glucosa</text><rect x="175" y="512" width="725" height="16" rx="8" fill="#c3d9f4"/><rect x="195.71" y="512" width="80" height="16" rx="8" fill="#2a78d6"/><circle cx="195.71" cy="498" r="7" fill="#eb6834"/><rect x="268.21" y="512" width="80" height="16" rx="8" fill="#2a78d6"/><circle cx="268.21" cy="498" r="7" fill="#eb6834"/><rect x="340.71" y="512" width="80" height="16" rx="8" fill="#2a78d6"/><circle cx="340.71" cy="498" r="7" fill="#eb6834"/><rect x="413.21" y="512" width="80" height="16" rx="8" fill="#2a78d6"/><circle cx="413.21" cy="498" r="7" fill="#eb6834"/><rect x="485.71" y="512" width="80" height="16" rx="8" fill="#2a78d6"/><circle cx="485.71" cy="498" r="7" fill="#eb6834"/><rect x="558.21" y="512" width="80" height="16" rx="8" fill="#2a78d6"/><circle cx="558.21" cy="498" r="7" fill="#eb6834"/><rect x="630.71" y="512" width="80" height="16" rx="8" fill="#2a78d6"/><circle cx="630.71" cy="498" r="7" fill="#eb6834"/><rect x="703.21" y="512" width="80" height="16" rx="8" fill="#2a78d6"/><circle cx="703.21" cy="498" r="7" fill="#eb6834"/><rect x="775.71" y="512" width="80" height="16" rx="8" fill="#2a78d6"/><circle cx="775.71" cy="498" r="7" fill="#eb6834"/><rect x="848.21" y="512" width="51.79" height="16" rx="8" fill="#2a78d6"/><circle cx="848.21" cy="498" r="7" fill="#eb6834"/><text x="175" y="552" font-family="'Avenir Next', 'Avenir', 'Helvetica Neue', Arial, sans-serif" font-size="13.5" font-weight="400" fill="#52514e" text-anchor="start">la siguiente llega antes de relajarse: sigue rápida</text><rect x="560" y="576" width="18" height="10" rx="5" fill="#2a78d6"/><text x="584" y="585" font-family="'Avenir Next', 'Avenir', 'Helvetica Neue', Arial, sans-serif" font-size="13" font-weight="400" fill="#52514e" text-anchor="start">forma rápida</text><rect x="690" y="576" width="18" height="10" rx="5" fill="#c3d9f4"/><text x="714" y="585" font-family="'Avenir Next', 'Avenir', 'Helvetica Neue', Arial, sans-serif" font-size="13" font-weight="400" fill="#52514e" text-anchor="start">forma lenta</text><circle cx="815" cy="581" r="6" fill="#eb6834"/><text x="827" y="585" font-family="'Avenir Next', 'Avenir', 'Helvetica Neue', Arial, sans-serif" font-size="13" font-weight="400" fill="#52514e" text-anchor="start">llega una glucosa</text></svg>
